<svg xmlns="http://www.w3.org/2000/svg" viewBox="0 0 280 280" fill="none">
  <rect width="280" height="280" fill="#F8F7F5"/>
  <rect x="20" y="20" width="240" height="240" rx="20" fill="white" stroke="rgba(0,0,0,0.06)"/>

  <text x="36" y="50" font-family="Inter,system-ui,sans-serif" font-size="10" font-weight="700" letter-spacing="2" fill="rgba(26,26,26,0.5)">THIS WEEK</text>
  <text x="36" y="76" font-family="Inter,system-ui,sans-serif" font-size="18" font-weight="700" fill="#1A1A1A">Bedtime mode</text>

  <!-- Day labels -->
  <g font-family="Inter,system-ui,sans-serif" font-size="9" font-weight="600" fill="rgba(26,26,26,0.52)">
    <text x="60" y="106" text-anchor="middle">M</text>
    <text x="86" y="106" text-anchor="middle">T</text>
    <text x="112" y="106" text-anchor="middle">W</text>
    <text x="138" y="106" text-anchor="middle">T</text>
    <text x="164" y="106" text-anchor="middle">F</text>
    <text x="190" y="106" text-anchor="middle">S</text>
    <text x="216" y="106" text-anchor="middle">S</text>
  </g>

  <!-- Time labels -->
  <g font-family="Inter,system-ui,sans-serif" font-size="8" fill="rgba(26,26,26,0.4)">
    <text x="36" y="134">6pm</text>
    <text x="36" y="158">9pm</text>
    <text x="36" y="182">12am</text>
    <text x="36" y="206">3am</text>
    <text x="36" y="230">6am</text>
  </g>

  <!-- Light cells (allowed) -->
  <g fill="#F4F2EE">
    <rect x="50" y="118" width="20" height="20" rx="4"/><rect x="76" y="118" width="20" height="20" rx="4"/><rect x="102" y="118" width="20" height="20" rx="4"/><rect x="128" y="118" width="20" height="20" rx="4"/><rect x="154" y="118" width="20" height="20" rx="4"/><rect x="180" y="118" width="20" height="20" rx="4"/><rect x="206" y="118" width="20" height="20" rx="4"/>
    <rect x="180" y="142" width="20" height="20" rx="4"/><rect x="206" y="142" width="20" height="20" rx="4"/>
    <rect x="50" y="214" width="20" height="20" rx="4"/><rect x="76" y="214" width="20" height="20" rx="4"/><rect x="102" y="214" width="20" height="20" rx="4"/><rect x="128" y="214" width="20" height="20" rx="4"/><rect x="154" y="214" width="20" height="20" rx="4"/><rect x="180" y="214" width="20" height="20" rx="4"/><rect x="206" y="214" width="20" height="20" rx="4"/>
    <rect x="50" y="238" width="20" height="20" rx="4"/><rect x="76" y="238" width="20" height="20" rx="4"/><rect x="102" y="238" width="20" height="20" rx="4"/><rect x="128" y="238" width="20" height="20" rx="4"/><rect x="154" y="238" width="20" height="20" rx="4"/><rect x="180" y="238" width="20" height="20" rx="4"/><rect x="206" y="238" width="20" height="20" rx="4"/>
  </g>

  <!-- Dark cells (blocked) -->
  <g fill="#1A1A1A">
    <rect x="50" y="142" width="20" height="20" rx="4"/><rect x="76" y="142" width="20" height="20" rx="4"/><rect x="102" y="142" width="20" height="20" rx="4"/><rect x="128" y="142" width="20" height="20" rx="4"/><rect x="154" y="142" width="20" height="20" rx="4"/>
    <rect x="50" y="166" width="20" height="20" rx="4"/><rect x="76" y="166" width="20" height="20" rx="4"/><rect x="102" y="166" width="20" height="20" rx="4"/><rect x="128" y="166" width="20" height="20" rx="4"/><rect x="154" y="166" width="20" height="20" rx="4"/><rect x="180" y="166" width="20" height="20" rx="4"/><rect x="206" y="166" width="20" height="20" rx="4"/>
    <rect x="50" y="190" width="20" height="20" rx="4"/><rect x="76" y="190" width="20" height="20" rx="4"/><rect x="102" y="190" width="20" height="20" rx="4"/><rect x="128" y="190" width="20" height="20" rx="4"/><rect x="154" y="190" width="20" height="20" rx="4"/><rect x="180" y="190" width="20" height="20" rx="4"/><rect x="206" y="190" width="20" height="20" rx="4"/>
  </g>
</svg>
