<svg xmlns="http://www.w3.org/2000/svg" viewBox="0 0 280 280" fill="none">
  <rect width="280" height="280" fill="#F8F7F5"/>
  <rect x="20" y="20" width="240" height="240" rx="20" fill="white" stroke="rgba(0,0,0,0.06)"/>

  <text x="36" y="50" font-family="Inter,system-ui,sans-serif" font-size="10" font-weight="700" letter-spacing="2" fill="rgba(26,26,26,0.5)">THREAT LOG · LIVE</text>

  <!-- Threat 1 - blocked -->
  <rect x="36" y="68" width="208" height="46" rx="12" fill="#F8F7F5"/>
  <circle cx="56" cy="91" r="10" fill="#1A1A1A"/>
  <path d="M52 87 L60 95 M60 87 L52 95" stroke="white" stroke-width="2" stroke-linecap="round"/>
  <text x="74" y="86" font-family="Inter,system-ui,sans-serif" font-size="12" font-weight="600" fill="#1A1A1A">Phishing attempt</text>
  <text x="74" y="101" font-family="Inter,system-ui,sans-serif" font-size="10" fill="rgba(26,26,26,0.52)">paypal-secure-login.tk · blocked</text>
  <text x="226" y="93" text-anchor="end" font-family="Inter,system-ui,sans-serif" font-size="9" font-weight="600" fill="rgba(26,26,26,0.4)">2s</text>

  <!-- Threat 2 - blocked -->
  <rect x="36" y="122" width="208" height="46" rx="12" fill="#F8F7F5"/>
  <circle cx="56" cy="145" r="10" fill="#1A1A1A"/>
  <path d="M52 141 L60 149 M60 141 L52 149" stroke="white" stroke-width="2" stroke-linecap="round"/>
  <text x="74" y="140" font-family="Inter,system-ui,sans-serif" font-size="12" font-weight="600" fill="#1A1A1A">Malware C2 server</text>
  <text x="74" y="155" font-family="Inter,system-ui,sans-serif" font-size="10" fill="rgba(26,26,26,0.52)">194.87.x.x · blocked</text>
  <text x="226" y="147" text-anchor="end" font-family="Inter,system-ui,sans-serif" font-size="9" font-weight="600" fill="rgba(26,26,26,0.4)">1m</text>

  <!-- Threat 3 - blocked -->
  <rect x="36" y="176" width="208" height="46" rx="12" fill="#F8F7F5"/>
  <circle cx="56" cy="199" r="10" fill="#1A1A1A"/>
  <path d="M52 195 L60 203 M60 195 L52 203" stroke="white" stroke-width="2" stroke-linecap="round"/>
  <text x="74" y="194" font-family="Inter,system-ui,sans-serif" font-size="12" font-weight="600" fill="#1A1A1A">Crypto-miner script</text>
  <text x="74" y="209" font-family="Inter,system-ui,sans-serif" font-size="10" fill="rgba(26,26,26,0.52)">ad.injector.net · blocked</text>
  <text x="226" y="201" text-anchor="end" font-family="Inter,system-ui,sans-serif" font-size="9" font-weight="600" fill="rgba(26,26,26,0.4)">4m</text>

  <!-- Status footer -->
  <circle cx="44" cy="244" r="4" fill="#2DB42D"/>
  <circle cx="44" cy="244" r="7" fill="none" stroke="#2DB42D" stroke-width="1.5" opacity="0.4"/>
  <text x="56" y="248" font-family="Inter,system-ui,sans-serif" font-size="11" font-weight="600" fill="#1A1A1A">Firewall active</text>
</svg>
